<mxfile host="app.diagrams.net" modified="2022-02-14T03:31:17.546Z" agent="5.0 (Macintosh; Intel Mac OS X 10_15_7) AppleWebKit/537.36 (KHTML, like Gecko) Chrome/98.0.4758.80 Safari/537.36" etag="lcpdcsSLjWnP6J_Gsb8z" version="16.5.6" type="github" pages="2">
  <diagram id="IdYXJNN6zxIWIssic2c2" name="System ">
    <mxGraphModel dx="946" dy="646" grid="1" gridSize="10" guides="1" tooltips="1" connect="1" arrows="1" fold="1" page="1" pageScale="1" pageWidth="850" pageHeight="1100" math="0" shadow="0">
      <root>
        <mxCell id="0" />
        <mxCell id="1" parent="0" />
        <mxCell id="eFt1cvfhnDoNZfE70Jg_-1" value="&lt;font style=&quot;font-size: 18px&quot;&gt;t1.me&lt;/font&gt;" style="whiteSpace=wrap;html=1;aspect=fixed;" parent="1" vertex="1">
          <mxGeometry x="50" y="320" width="80" height="80" as="geometry" />
        </mxCell>
        <mxCell id="eFt1cvfhnDoNZfE70Jg_-2" value="&lt;font style=&quot;font-size: 18px&quot;&gt;api-v3.tt1.co&lt;/font&gt;" style="whiteSpace=wrap;html=1;aspect=fixed;" parent="1" vertex="1">
          <mxGeometry x="50" y="540" width="80" height="80" as="geometry" />
        </mxCell>
        <mxCell id="eFt1cvfhnDoNZfE70Jg_-3" value="&lt;font style=&quot;font-size: 18px&quot;&gt;tty1-reports&lt;/font&gt;" style="whiteSpace=wrap;html=1;aspect=fixed;" parent="1" vertex="1">
          <mxGeometry x="370" y="320" width="80" height="80" as="geometry" />
        </mxCell>
        <mxCell id="eFt1cvfhnDoNZfE70Jg_-4" value="&lt;span style=&quot;font-size: 18px&quot;&gt;tty1-extension&lt;/span&gt;" style="whiteSpace=wrap;html=1;aspect=fixed;" parent="1" vertex="1">
          <mxGeometry x="530" y="320" width="80" height="80" as="geometry" />
        </mxCell>
        <mxCell id="eFt1cvfhnDoNZfE70Jg_-5" value="&lt;span style=&quot;font-size: 18px&quot;&gt;sunrise.io&lt;/span&gt;" style="whiteSpace=wrap;html=1;aspect=fixed;" parent="1" vertex="1">
          <mxGeometry x="50" y="430" width="80" height="80" as="geometry" />
        </mxCell>
        <mxCell id="eFt1cvfhnDoNZfE70Jg_-7" value="&lt;span style=&quot;font-size: 18px&quot;&gt;tty1-ac-monitor&lt;/span&gt;" style="whiteSpace=wrap;html=1;aspect=fixed;fillColor=#f8cecc;strokeColor=#b85450;" parent="1" vertex="1">
          <mxGeometry x="110" y="850" width="80" height="80" as="geometry" />
        </mxCell>
        <mxCell id="eFt1cvfhnDoNZfE70Jg_-8" value="heroku" style="ellipse;shape=cloud;whiteSpace=wrap;html=1;fontSize=18;" parent="1" vertex="1">
          <mxGeometry x="30" y="200" width="120" height="80" as="geometry" />
        </mxCell>
        <mxCell id="eFt1cvfhnDoNZfE70Jg_-9" value="digital&lt;br&gt;ocean" style="ellipse;shape=cloud;whiteSpace=wrap;html=1;fontSize=18;" parent="1" vertex="1">
          <mxGeometry x="190" y="200" width="120" height="80" as="geometry" />
        </mxCell>
        <mxCell id="eFt1cvfhnDoNZfE70Jg_-10" value="CircieCI" style="ellipse;shape=cloud;whiteSpace=wrap;html=1;fontSize=18;" parent="1" vertex="1">
          <mxGeometry x="350" y="200" width="120" height="80" as="geometry" />
        </mxCell>
        <mxCell id="eFt1cvfhnDoNZfE70Jg_-11" value="G-&lt;br&gt;workspace" style="ellipse;shape=cloud;whiteSpace=wrap;html=1;fontSize=18;" parent="1" vertex="1">
          <mxGeometry x="510" y="200" width="120" height="80" as="geometry" />
        </mxCell>
        <mxCell id="eFt1cvfhnDoNZfE70Jg_-12" value="Postgres&lt;br&gt;SQL" style="shape=cylinder3;whiteSpace=wrap;html=1;boundedLbl=1;backgroundOutline=1;size=15;fontSize=18;fillColor=#d5e8d4;strokeColor=#82b366;" parent="1" vertex="1">
          <mxGeometry x="60" y="670" width="60" height="80" as="geometry" />
        </mxCell>
        <mxCell id="eFt1cvfhnDoNZfE70Jg_-13" value="" style="endArrow=none;dashed=1;html=1;rounded=0;fontSize=18;" parent="1" edge="1">
          <mxGeometry width="50" height="50" relative="1" as="geometry">
            <mxPoint x="80" y="810" as="sourcePoint" />
            <mxPoint x="790" y="810" as="targetPoint" />
          </mxGeometry>
        </mxCell>
        <mxCell id="eFt1cvfhnDoNZfE70Jg_-14" value="Not sure" style="rounded=1;whiteSpace=wrap;html=1;fontSize=18;" parent="1" vertex="1">
          <mxGeometry x="330" y="780" width="120" height="60" as="geometry" />
        </mxCell>
        <mxCell id="eFt1cvfhnDoNZfE70Jg_-15" value="AirTable" style="ellipse;shape=cloud;whiteSpace=wrap;html=1;fontSize=18;" parent="1" vertex="1">
          <mxGeometry x="700" y="200" width="120" height="80" as="geometry" />
        </mxCell>
        <mxCell id="eFt1cvfhnDoNZfE70Jg_-17" value="&lt;span style=&quot;font-size: 18px&quot;&gt;tty1-inbox-watcher&lt;/span&gt;" style="whiteSpace=wrap;html=1;aspect=fixed;" parent="1" vertex="1">
          <mxGeometry x="530" y="430" width="80" height="80" as="geometry" />
        </mxCell>
        <mxCell id="eFt1cvfhnDoNZfE70Jg_-18" value="&lt;span style=&quot;font-size: 18px&quot;&gt;tty1-gmail-&lt;br&gt;addon&lt;br&gt;&lt;/span&gt;" style="whiteSpace=wrap;html=1;aspect=fixed;" parent="1" vertex="1">
          <mxGeometry x="530" y="540" width="80" height="80" as="geometry" />
        </mxCell>
        <mxCell id="eFt1cvfhnDoNZfE70Jg_-19" value="&lt;span style=&quot;font-size: 18px&quot;&gt;tty1-jobboardspy&lt;/span&gt;" style="whiteSpace=wrap;html=1;aspect=fixed;fillColor=#f8cecc;strokeColor=#b85450;" parent="1" vertex="1">
          <mxGeometry x="240" y="850" width="80" height="80" as="geometry" />
        </mxCell>
        <mxCell id="eFt1cvfhnDoNZfE70Jg_-20" value="&lt;span style=&quot;font-size: 18px&quot;&gt;tty1-gsheets&lt;/span&gt;" style="whiteSpace=wrap;html=1;aspect=fixed;" parent="1" vertex="1">
          <mxGeometry x="530" y="660" width="80" height="80" as="geometry" />
        </mxCell>
        <mxCell id="eFt1cvfhnDoNZfE70Jg_-21" value="&lt;span&gt;Airtable-DB&lt;/span&gt;" style="shape=cylinder3;whiteSpace=wrap;html=1;boundedLbl=1;backgroundOutline=1;size=15;fontSize=18;fillColor=#d5e8d4;strokeColor=#82b366;" parent="1" vertex="1">
          <mxGeometry x="730" y="320" width="60" height="80" as="geometry" />
        </mxCell>
      </root>
    </mxGraphModel>
  </diagram>
  <diagram id="4EEC5EJhEFI4EC-vWGis" name="Automation Center">
    <mxGraphModel dx="946" dy="646" grid="1" gridSize="10" guides="1" tooltips="1" connect="1" arrows="1" fold="1" page="1" pageScale="1" pageWidth="850" pageHeight="1100" math="0" shadow="0">
      <root>
        <mxCell id="Ynqxts-vVMyLZhxl16NB-0" />
        <mxCell id="Ynqxts-vVMyLZhxl16NB-1" parent="Ynqxts-vVMyLZhxl16NB-0" />
        <mxCell id="K8t8NIo_cJCtaQKhgIx9-7" value="" style="group" vertex="1" connectable="0" parent="Ynqxts-vVMyLZhxl16NB-1">
          <mxGeometry x="10" y="20" width="230" height="230" as="geometry" />
        </mxCell>
        <mxCell id="K8t8NIo_cJCtaQKhgIx9-8" value="" style="whiteSpace=wrap;html=1;aspect=fixed;fontSize=18;fillColor=#f5f5f5;fontColor=#333333;strokeColor=#666666;" vertex="1" parent="K8t8NIo_cJCtaQKhgIx9-7">
          <mxGeometry width="230" height="230" as="geometry" />
        </mxCell>
        <mxCell id="K8t8NIo_cJCtaQKhgIx9-9" value="Digital Ocean" style="rounded=1;whiteSpace=wrap;html=1;fontSize=18;" vertex="1" parent="K8t8NIo_cJCtaQKhgIx9-7">
          <mxGeometry x="50" width="120" height="30" as="geometry" />
        </mxCell>
        <mxCell id="K8t8NIo_cJCtaQKhgIx9-0" value="AC-Monitor" style="whiteSpace=wrap;html=1;aspect=fixed;fontSize=18;" vertex="1" parent="K8t8NIo_cJCtaQKhgIx9-7">
          <mxGeometry x="75" y="75" width="80" height="80" as="geometry" />
        </mxCell>
        <mxCell id="K8t8NIo_cJCtaQKhgIx9-6" value="" style="group" vertex="1" connectable="0" parent="Ynqxts-vVMyLZhxl16NB-1">
          <mxGeometry x="20" y="330" width="230" height="230" as="geometry" />
        </mxCell>
        <mxCell id="K8t8NIo_cJCtaQKhgIx9-4" value="" style="whiteSpace=wrap;html=1;aspect=fixed;fontSize=18;fillColor=#f5f5f5;fontColor=#333333;strokeColor=#666666;" vertex="1" parent="K8t8NIo_cJCtaQKhgIx9-6">
          <mxGeometry width="230" height="230" as="geometry" />
        </mxCell>
        <mxCell id="K8t8NIo_cJCtaQKhgIx9-5" value="t1.me" style="rounded=1;whiteSpace=wrap;html=1;fontSize=18;" vertex="1" parent="K8t8NIo_cJCtaQKhgIx9-6">
          <mxGeometry x="50" width="120" height="30" as="geometry" />
        </mxCell>
        <mxCell id="K8t8NIo_cJCtaQKhgIx9-1" value="AC-Frontend" style="whiteSpace=wrap;html=1;aspect=fixed;fontSize=18;" vertex="1" parent="K8t8NIo_cJCtaQKhgIx9-6">
          <mxGeometry x="70" y="80" width="80" height="80" as="geometry" />
        </mxCell>
        <mxCell id="K8t8NIo_cJCtaQKhgIx9-11" value="" style="group" vertex="1" connectable="0" parent="Ynqxts-vVMyLZhxl16NB-1">
          <mxGeometry x="460" y="20" width="230" height="230" as="geometry" />
        </mxCell>
        <mxCell id="K8t8NIo_cJCtaQKhgIx9-12" value="" style="whiteSpace=wrap;html=1;aspect=fixed;fontSize=18;fillColor=#f5f5f5;fontColor=#333333;strokeColor=#666666;" vertex="1" parent="K8t8NIo_cJCtaQKhgIx9-11">
          <mxGeometry width="230" height="230" as="geometry" />
        </mxCell>
        <mxCell id="K8t8NIo_cJCtaQKhgIx9-13" value="API-V3" style="rounded=1;whiteSpace=wrap;html=1;fontSize=18;" vertex="1" parent="K8t8NIo_cJCtaQKhgIx9-11">
          <mxGeometry x="50" width="120" height="30" as="geometry" />
        </mxCell>
        <mxCell id="K8t8NIo_cJCtaQKhgIx9-2" value="AC-Action-Executor" style="whiteSpace=wrap;html=1;aspect=fixed;fontSize=18;" vertex="1" parent="K8t8NIo_cJCtaQKhgIx9-11">
          <mxGeometry x="75" y="75" width="80" height="80" as="geometry" />
        </mxCell>
        <mxCell id="K8t8NIo_cJCtaQKhgIx9-15" value="" style="group" vertex="1" connectable="0" parent="Ynqxts-vVMyLZhxl16NB-1">
          <mxGeometry x="460" y="320" width="230" height="230" as="geometry" />
        </mxCell>
        <mxCell id="K8t8NIo_cJCtaQKhgIx9-16" value="" style="whiteSpace=wrap;html=1;aspect=fixed;fontSize=18;fillColor=#f5f5f5;fontColor=#333333;strokeColor=#666666;" vertex="1" parent="K8t8NIo_cJCtaQKhgIx9-15">
          <mxGeometry width="230" height="230" as="geometry" />
        </mxCell>
        <mxCell id="K8t8NIo_cJCtaQKhgIx9-17" value="Postgres" style="rounded=1;whiteSpace=wrap;html=1;fontSize=18;" vertex="1" parent="K8t8NIo_cJCtaQKhgIx9-15">
          <mxGeometry x="50" width="120" height="30" as="geometry" />
        </mxCell>
        <mxCell id="K8t8NIo_cJCtaQKhgIx9-3" value="AC-Tasks-Storage" style="whiteSpace=wrap;html=1;aspect=fixed;fontSize=18;" vertex="1" parent="K8t8NIo_cJCtaQKhgIx9-15">
          <mxGeometry x="75" y="80" width="80" height="80" as="geometry" />
        </mxCell>
      </root>
    </mxGraphModel>
  </diagram>
</mxfile>
